<?xml version="1.0" standalone="no"?>
<!DOCTYPE svg PUBLIC "-//W3C//DTD SVG 20010904//EN"
 "http://www.w3.org/TR/2001/REC-SVG-20010904/DTD/svg10.dtd">
<svg version="1.0" xmlns="http://www.w3.org/2000/svg"
 width="512.000000pt" height="512.000000pt" viewBox="0 0 512.000000 512.000000"
 preserveAspectRatio="xMidYMid meet">
<metadata>
Created by potrace 1.14, written by Peter Selinger 2001-2017
</metadata>
<g transform="translate(0.000000,512.000000) scale(0.100000,-0.100000)"
fill="#000000" stroke="none">
<path d="M2113 4815 c-158 -50 -280 -170 -330 -324 -21 -67 -25 -196 -7 -271
30 -129 54 -159 405 -512 180 -180 338 -332 353 -338 17 -6 35 -6 53 1 14 5
173 157 352 338 340 342 362 369 400 492 22 68 23 210 2 274 -53 166 -172 289
-331 341 -128 42 -305 20 -412 -51 l-38 -25 -38 25 c-108 72 -276 92 -409 50z"/>
<path d="M1377 3324 c-2 -2 -55 -10 -130 -20 -53 -7 -183 -44 -259 -73 -526
-204 -885 -651 -972 -1213 -13 -86 -14 -333 -2 -413 31 -201 77 -343 166 -513
70 -132 149 -240 260 -352 237 -241 512 -383 860 -445 73 -13 355 -13 440 0
138 22 255 53 365 98 59 24 221 110 265 141 24 17 49 34 55 38 5 4 30 24 55
45 25 20 53 44 62 51 16 13 25 9 85 -40 117 -93 159 -121 294 -189 124 -62
301 -122 404 -135 17 -2 52 -8 79 -13 53 -10 330 -7 411 4 214 30 481 138 667
272 79 57 246 214 302 283 168 211 283 479 319 745 18 124 14 361 -6 470 -44
232 -133 444 -264 628 -77 108 -247 277 -358 356 -143 100 -419 226 -515 233
-3 0 -15 4 -27 9 -11 4 -47 11 -80 15 -32 3 -62 9 -68 12 -5 3 -79 7 -165 8
-382 5 -693 -103 -993 -343 l-68 -55 -36 29 c-19 15 -61 47 -92 70 -31 23 -60
46 -66 51 -12 10 -155 92 -160 92 -2 0 -32 13 -67 29 -102 47 -261 96 -348
107 -19 2 -60 8 -90 13 -46 7 -316 12 -323 5z m337 -425 c195 -34 414 -139
547 -261 l36 -33 -19 -30 c-55 -86 -126 -260 -159 -386 -36 -143 -40 -175 -45
-354 -3 -120 0 -175 17 -275 30 -180 96 -370 179 -509 l27 -47 -45 -40 c-93
-81 -307 -204 -354 -204 -8 0 -18 -3 -22 -7 -3 -4 -12 -8 -19 -9 -7 -1 -40
-10 -75 -19 -161 -42 -364 -40 -540 6 -477 125 -821 563 -825 1048 -1 144 7
205 46 349 26 94 26 111 -4 153 -10 13 -6 28 17 75 27 53 33 59 62 60 45 1 71
18 114 72 227 285 554 437 912 425 50 -1 117 -8 150 -14z m2070 0 c98 -16 238
-64 325 -110 278 -148 486 -410 562 -709 51 -201 41 -449 -26 -639 -17 -49
-12 -82 16 -107 18 -16 18 -18 -17 -85 -29 -54 -40 -67 -52 -60 -34 19 -74 -4
-133 -79 -52 -66 -135 -146 -215 -206 -95 -71 -298 -164 -394 -180 -14 -3 -49
-9 -79 -15 -66 -13 -264 -18 -306 -8 -16 4 -48 10 -70 12 -22 3 -47 7 -55 11
-8 3 -26 7 -40 10 -49 9 -160 55 -242 99 -77 43 -219 147 -226 167 -2 4 16 43
39 87 125 235 179 466 174 743 -1 91 -6 181 -9 200 -34 182 -86 340 -156 474
-28 53 -50 99 -50 103 0 14 117 103 198 152 82 49 202 100 287 121 138 35 328
43 469 19z m-1190 -792 c57 -195 54 -420 -6 -624 -12 -40 -25 -73 -28 -73 -11
0 -41 109 -60 210 -22 123 -18 282 9 412 19 93 47 176 56 167 2 -3 15 -44 29
-92z"/>
</g>
</svg>
